<svg width="24" height="24" fill="none" xmlns="http://www.w3.org/2000/svg"><g clip-path="url(#clip0_406_466)" fill="#F7931E"><path d="M12 24C5.4 24 0 18.6 0 12S5.4 0 12 0s12 5.4 12 12-5.4 12-12 12zm0-22C6.5 2 2 6.5 2 12s4.5 10 10 10 10-4.5 10-10S17.5 2 12 2z"/><path d="M12 13c-.6 0-1-.4-1-1V5c0-.6.4-1 1-1s1 .4 1 1v7c0 .6-.4 1-1 1z"/><path d="M16 17c-.3 0-.5-.1-.7-.3l-4-4c-.4-.4-.4-1 0-1.4.4-.4 1-.4 1.4 0l4 4c.4.4.4 1 0 1.4-.2.2-.4.3-.7.3z"/></g><defs><clipPath id="clip0_406_466"><path fill="#fff" d="M0 0h24v24H0z"/></clipPath></defs></svg>