<svg width="64" height="64" fill="none" xmlns="http://www.w3.org/2000/svg"><path d="M7.2 42.4H12v.8c0 1.764 1.435 3.2 3.2 3.2H20c1.765 0 3.2-1.436 3.2-3.2v-6.4h17.6v6.4c0 1.764 1.436 3.2 3.2 3.2h4.8c1.765 0 3.2-1.436 3.2-3.2v-.8h4.8c1.765 0 3.2-1.436 3.2-3.2V24.8c0-1.765-1.435-3.2-3.2-3.2H52v-.8c0-1.765-1.435-3.2-3.2-3.2H44a3.204 3.204 0 00-3.2 3.2v6.4H23.2v-6.4c0-1.765-1.435-3.2-3.2-3.2h-4.8a3.204 3.204 0 00-3.2 3.2v.8H7.2A3.204 3.204 0 004 24.8v14.4c0 1.764 1.436 3.2 3.2 3.2zm49.6-17.6v14.4H52V24.8h4.8zm-12.8-4h4.8v22.4H44V20.8zm-3.4 9.6v3.2H23.2v-3.2h17.4zm-25.4-9.6H20v16h.001l.001 6.4H15.2V20.8zm-8 4H12v14.4H7.2V24.8z" fill="#F7931E"/></svg>