<svg width="31" height="30" fill="none" xmlns="http://www.w3.org/2000/svg"><g clip-path="url(#clip0_406_291)"><path d="M29.322 7.23a10.757 10.757 0 01-1.363 2.824l.024-.038a149.62 149.62 0 01-2.006 3.235c-.667.966-1.02 1.466-1.059 1.5a1.6 1.6 0 00-.334.773v.008c.03.255.15.491.334.67l.5.557c2.675 2.749 4.18 4.644 4.514 5.685a1.114 1.114 0 01-.14 1.036l.002-.004a1.207 1.207 0 01-.98.361h.005-3.295c-.42 0-.808-.147-1.112-.392l.004.002a8.661 8.661 0 01-1.19-1.185l-.01-.015a36.92 36.92 0 00-1.533-1.643c-1.485-1.412-2.58-2.118-3.287-2.118a.985.985 0 00-.645.169l.003-.003a.958.958 0 00-.2.73v-.005a15.645 15.645 0 00-.047 1.754v-.021 1.449a.975.975 0 01-.333.946v.001a3.974 3.974 0 01-2.022.334l.016.001a10.403 10.403 0 01-5.344-1.585l.044.025a14.914 14.914 0 01-4.646-4.406l-.034-.053a32.951 32.951 0 01-3.089-4.99l-.087-.192A30.824 30.824 0 01.47 9.137l-.075-.23a8.308 8.308 0 01-.388-1.92l-.002-.03c0-.633.371-.948 1.115-.948h3.287c.332-.026.662.074.924.28l-.003-.002c.25.274.435.61.527.985l.003.015a31.774 31.774 0 001.984 4.52l-.084-.172a18.2 18.2 0 002.03 3.22l-.03-.039c.667.818 1.187 1.228 1.56 1.228h.04a.5.5 0 00.434-.25l.001-.002c.12-.313.167-.65.14-.983v.007-4.849a4.014 4.014 0 00-.4-1.583l.01.023a3.695 3.695 0 00-.563-.868l.003.005a1.369 1.369 0 01-.388-.774l-.002-.008c0-.212.098-.403.25-.528l.002-.002a.848.848 0 01.575-.222h5.192a.793.793 0 01.699.277l.001.002a1.7 1.7 0 01.199.953v-.006 6.466c-.02.255.04.51.17.73l-.003-.005a.5.5 0 00.417.223c.212-.014.415-.084.59-.203l-.004.003c.34-.234.632-.5.886-.801l.005-.007a19.514 19.514 0 002.069-2.812l.049-.088c.43-.712.895-1.59 1.316-2.49l.077-.185.558-1.115a1.402 1.402 0 011.396-.948h-.004 3.29c.887 0 1.22.408 1 1.226h-.002z" fill="#fff"/></g><defs><clipPath id="clip0_406_291"><path fill="#fff" transform="translate(.002)" d="M0 0h30v30H0z"/></clipPath></defs></svg>