<svg width="34" height="34" fill="none" xmlns="http://www.w3.org/2000/svg"><g clip-path="url(#clip0_406_379)"><path d="M22.844 16.469h-4.348a1.592 1.592 0 00-.965-.965V9.031a.531.531 0 00-1.062 0v6.473a1.59 1.59 0 102.027 2.027h4.348a.531.531 0 100-1.062zM17 17.53a.53.53 0 110-1.061.53.53 0 010 1.061zM34 17a17 17 0 10-30.796 9.93 1.554 1.554 0 00-.017.163v1.062a1.596 1.596 0 001.594 1.594h.532v1.154a2.036 2.036 0 002.033 2.034h.183a2.014 2.014 0 001.079-.317 1.994 1.994 0 001.89 1.38h.255a2 2 0 001.997-1.998V29.75h8.5v2.253A2 2 0 0023.247 34h.256a1.994 1.994 0 001.89-1.379 2.01 2.01 0 001.078.317h.183a2.036 2.036 0 002.034-2.034V29.75h.53a1.596 1.596 0 001.595-1.594v-1.062a1.536 1.536 0 00-.017-.163A16.88 16.88 0 0034 17zM5.312 28.687h-.53a.532.532 0 01-.532-.532v-1.062a.532.532 0 01.531-.531h.532v2.125zM8.5 30.904a.973.973 0 01-.971.971h-.183a.973.973 0 01-.971-.971v-5.495a.973.973 0 01.971-.971h.183a.973.973 0 01.971.97v5.496zm3.188 1.099a.935.935 0 01-.935.935h-.256a.936.936 0 01-.934-.935v-8.756a.936.936 0 01.934-.934h.256a.936.936 0 01.934.934v8.756zm9.562-3.315h-8.5v-2.125h8.5v2.125zm3.188-3.28v6.595a.936.936 0 01-.935.935h-.256a.935.935 0 01-.934-.935v-8.756a.936.936 0 01.934-.934h.256a.936.936 0 01.934.934v2.162zm3.187 5.496a.973.973 0 01-.971.971h-.183a.973.973 0 01-.971-.971v-5.495a.973.973 0 01.971-.971h.183a.973.973 0 01.971.97v5.496zm.19-7.16a2.019 2.019 0 00-1.161-.369h-.183c-.34.002-.674.091-.971.258v-.386a2 2 0 00-1.997-1.997h-.256a2 2 0 00-1.997 1.997V25.5h-8.5v-2.253a2 2 0 00-1.997-1.997h-.256A2 2 0 008.5 23.247v.386a2.008 2.008 0 00-.971-.258h-.183c-.415 0-.821.129-1.16.368a12.694 12.694 0 01-1.916-6.212h1.574a.53.53 0 100-1.062H4.276a12.634 12.634 0 013.35-8.092l1.11 1.11a.531.531 0 00.75-.751l-1.109-1.11a12.631 12.631 0 018.092-3.35v1.568a.53.53 0 101.062 0V4.276c3.01.116 5.88 1.304 8.092 3.35l-1.11 1.11a.533.533 0 00.375.91.531.531 0 00.376-.16l1.11-1.109a12.634 12.634 0 013.35 8.092h-1.568a.531.531 0 000 1.062h1.574a12.694 12.694 0 01-1.915 6.212zm1.935 4.412a.532.532 0 01-.531.532h-.532v-2.125h.532a.532.532 0 01.531.53v1.063zm.482-2.282a1.578 1.578 0 00-1.013-.374h-.532v-.091a2.02 2.02 0 00-.166-.802 13.811 13.811 0 10-23.042 0 2.02 2.02 0 00-.167.802v.091h-.53c-.372.002-.73.134-1.014.374A15.935 15.935 0 1132.938 17a15.828 15.828 0 01-2.706 8.874z" fill="#F7931E"/></g><defs><clipPath id="clip0_406_379"><path fill="#fff" d="M0 0h34v34H0z"/></clipPath></defs></svg>