<svg width="64" height="64" fill="none" xmlns="http://www.w3.org/2000/svg"><g fill="#F7931E"><path d="M37.333 20.667A5.332 5.332 0 0032 15.333a5.332 5.332 0 00-5.333 5.334A5.332 5.332 0 0032 26a5.332 5.332 0 005.333-5.333zm-8 0C29.333 19.2 30.533 18 32 18c1.467 0 2.667 1.2 2.667 2.667 0 1.466-1.2 2.666-2.667 2.666a2.675 2.675 0 01-2.667-2.666z"/><path d="M5.333 54h53.334c.466 0 .893-.24 1.133-.64s.267-.88.053-1.293L49.187 30.733A1.317 1.317 0 0048 30h-8.307c1.974-4.36 2.974-7.507 2.974-9.333C42.667 14.787 37.88 10 32 10s-10.667 4.787-10.667 10.667c0 1.826 1 4.973 2.974 9.333H16c-.507 0-.96.28-1.187.733L4.147 52.067c-.214.413-.187.906.053 1.293.24.4.667.64 1.133.64zM24 20.667c0-4.414 3.587-8 8-8s8 3.586 8 8c0 3.053-4.027 11.413-8 18.613-3.973-7.2-8-15.56-8-18.613zm-7.173 12h8.733c2.493 5.146 5.173 9.8 5.293 10 .48.826 1.84.826 2.307 0 .12-.2 2.8-4.854 5.293-10h8.734l9.333 18.666H7.493l9.334-18.666z"/></g></svg>