<svg width="24" height="24" fill="none" xmlns="http://www.w3.org/2000/svg"><g clip-path="url(#clip0_406_462)"><path clip-rule="evenodd" d="M22.909 17.367v3.273a2.18 2.18 0 01-2.378 2.182 21.588 21.588 0 01-9.415-3.35 21.273 21.273 0 01-6.545-6.545A21.59 21.59 0 011.22 3.47a2.182 2.182 0 012.172-2.378h3.272a2.182 2.182 0 012.182 1.876 14 14 0 00.764 3.066 2.182 2.182 0 01-.491 2.302L7.734 9.72a17.455 17.455 0 006.546 6.545l1.385-1.385a2.182 2.182 0 012.302-.49c.99.369 2.018.624 3.066.763a2.182 2.182 0 011.876 2.214z" stroke="#F7931E" stroke-width="2" stroke-linecap="round" stroke-linejoin="round"/></g><defs><clipPath id="clip0_406_462"><path fill="#fff" d="M0 0h24v24H0z"/></clipPath></defs></svg>