<?xml version="1.0" encoding="utf-8"?><svg viewBox="0 0 64 64" xmlns="http://www.w3.org/2000/svg" xmlns:xlink="http://www.w3.org/1999/xlink"><style>:root>svg{display:none}:root>svg:target{display:block}</style><svg fill="none" viewBox="0 0 40 41" id="bi_arrow-left" xmlns="http://www.w3.org/2000/svg"><path fill-rule="evenodd" clip-rule="evenodd" d="M37.5 22.038a1.25 1.25 0 0 0-1.25-1.25H6.768l7.867-7.865a1.25 1.25 0 0 0 0-1.77 1.252 1.252 0 0 0-1.77 0l-10 10a1.25 1.25 0 0 0 0 1.77l10 10a1.251 1.251 0 1 0 1.77-1.77l-7.867-7.865H36.25a1.25 1.25 0 0 0 1.25-1.25Z" fill="#fff"/></svg><svg fill="none" viewBox="0 0 40 41" id="bi_arrow-right" xmlns="http://www.w3.org/2000/svg"><path fill-rule="evenodd" clip-rule="evenodd" d="M2.5 20.5a1.25 1.25 0 0 0 1.25 1.25h29.483l-7.868 7.865a1.25 1.25 0 1 0 1.77 1.77l10-10a1.249 1.249 0 0 0 0-1.77l-10-10a1.252 1.252 0 0 0-1.77 1.77l7.868 7.865H3.75A1.25 1.25 0 0 0 2.5 20.5Z" fill="#F7931E"/></svg><svg fill="none" viewBox="0 0 24 24" id="clock_(17)" xmlns="http://www.w3.org/2000/svg"><g clip-path="url(#ca)" fill="#F7931E"><path d="M12 24C5.4 24 0 18.6 0 12S5.4 0 12 0s12 5.4 12 12-5.4 12-12 12Zm0-22C6.5 2 2 6.5 2 12s4.5 10 10 10 10-4.5 10-10S17.5 2 12 2Z"/><path d="M12 13c-.6 0-1-.4-1-1V5c0-.6.4-1 1-1s1 .4 1 1v7c0 .6-.4 1-1 1Z"/><path d="M16 17c-.3 0-.5-.1-.7-.3l-4-4c-.4-.4-.4-1 0-1.4.4-.4 1-.4 1.4 0l4 4c.4.4.4 1 0 1.4-.2.2-.4.3-.7.3Z"/></g><defs><clipPath id="ca"><path fill="#fff" d="M0 0h24v24H0z"/></clipPath></defs></svg><svg fill="none" viewBox="0 0 64 64" id="dumbbell" xmlns="http://www.w3.org/2000/svg"><path d="M7.2 42.4H12v.8c0 1.764 1.435 3.2 3.2 3.2H20c1.765 0 3.2-1.436 3.2-3.2v-6.4h17.6v6.4c0 1.764 1.436 3.2 3.2 3.2h4.8c1.765 0 3.2-1.436 3.2-3.2v-.8h4.8c1.765 0 3.2-1.436 3.2-3.2V24.8c0-1.765-1.435-3.2-3.2-3.2H52v-.8c0-1.765-1.435-3.2-3.2-3.2H44a3.204 3.204 0 0 0-3.2 3.2v6.4H23.2v-6.4c0-1.765-1.435-3.2-3.2-3.2h-4.8a3.204 3.204 0 0 0-3.2 3.2v.8H7.2A3.204 3.204 0 0 0 4 24.8v14.4c0 1.764 1.436 3.2 3.2 3.2Zm49.6-17.6v14.4H52V24.8h4.8Zm-12.8-4h4.8v22.4H44V20.8Zm-3.4 9.6v3.2H23.2v-3.2h17.4Zm-25.4-9.6H20v16h.001l.001 6.4H15.2V20.8Zm-8 4H12v14.4H7.2V24.8Z" fill="#F7931E"/></svg><svg fill="none" viewBox="0 0 32 31" id="eva_arrow-ios-upward-fill" xmlns="http://www.w3.org/2000/svg"><path d="M7.752 11.625c.302 0 .594.105.827.297l6.923 5.787 6.936-5.58a1.293 1.293 0 0 1 2.057.64 1.29 1.29 0 0 1-.43 1.375l-7.75 6.239a1.292 1.292 0 0 1-1.64 0l-7.75-6.459a1.291 1.291 0 0 1-.168-1.821 1.29 1.29 0 0 1 .995-.478Z" fill="#F7931E"/></svg><svg fill="none" viewBox="0 0 23 22" id="fontisto_instagram" xmlns="http://www.w3.org/2000/svg"><g clip-path="url(#fa)"><path d="M14.669 11v-.001a3.667 3.667 0 1 0-1.075 2.593 3.522 3.522 0 0 0 1.075-2.537l-.001-.058V11Zm1.98 0A5.624 5.624 0 1 1 15 7.004a5.428 5.428 0 0 1 1.649 3.902l-.001.1V11Zm1.546-5.872v.002a1.32 1.32 0 1 1-.387-.934c.235.23.38.551.38.906v.027-.001h.007Zm-7.187-3.154-1.095-.007a75.92 75.92 0 0 0-1.512 0c-.344.005-.804.02-1.382.043-.536.018-1.045.072-1.543.156l.067-.01c-.39.065-.735.157-1.066.279l.04-.013a3.774 3.774 0 0 0-2.083 2.066l-.01.025a5.477 5.477 0 0 0-.26.992l-.004.034c-.082.482-.13.969-.146 1.457v.02a53.974 53.974 0 0 0-.044 1.381c-.005.344-.005.848 0 1.512l.007 1.095L1.97 12.1a75.907 75.907 0 0 0 0 1.511c.005.344.02.805.043 1.383.018.536.072 1.045.156 1.543l-.01-.067c.065.39.157.735.279 1.066l-.013-.04A3.774 3.774 0 0 0 4.49 19.58l.025.01c.291.108.637.2.992.26l.034.004c.43.075.939.128 1.456.146h.02c.577.024 1.038.039 1.382.044.343.005.847.005 1.511 0l1.09-.022 1.095.007c.663.005 1.167.005 1.511 0 .344-.005.805-.02 1.383-.043a11.536 11.536 0 0 0 1.542-.156l-.067.01c.39-.065.736-.156 1.066-.278l-.039.012a3.775 3.775 0 0 0 2.083-2.066l.009-.024c.109-.292.2-.637.26-.993l.005-.034c.075-.43.128-.939.145-1.456l.001-.019a54.17 54.17 0 0 0 .043-1.382c.005-.344.005-.848 0-1.512l-.007-1.095.008-1.096c.004-.664.004-1.168 0-1.511-.005-.344-.02-.805-.044-1.383a11.536 11.536 0 0 0-.155-1.542l.009.066a5.736 5.736 0 0 0-.278-1.066l.013.04a3.774 3.774 0 0 0-2.066-2.083l-.025-.009a5.477 5.477 0 0 0-.993-.26l-.034-.005a10.78 10.78 0 0 0-1.456-.146h-.019a53.976 53.976 0 0 0-1.382-.044 75.907 75.907 0 0 0-1.512 0l-1.089.021ZM22.002 11c0 2.186-.024 3.7-.073 4.54a6.085 6.085 0 0 1-6.403 6.387l.014.001c-.84.05-2.353.074-4.54.074-2.186 0-3.7-.025-4.54-.074a6.088 6.088 0 0 1-6.387-6.403l-.001.015c-.05-.84-.074-2.354-.074-4.54 0-2.187.025-3.7.074-4.54A6.087 6.087 0 0 1 6.475.072H6.46C7.3.021 8.814-.003 11-.003c2.187 0 3.7.024 4.54.073a6.087 6.087 0 0 1 6.388 6.403V6.46c.05.84.074 2.353.074 4.54Z" fill="#fff"/></g><defs><clipPath id="fa"><path fill="#fff" transform="translate(.002)" d="M0 0h22v22H0z"/></clipPath></defs></svg><svg fill="none" viewBox="0 0 31 30" id="fontisto_vk" xmlns="http://www.w3.org/2000/svg"><g clip-path="url(#ga)"><path d="M29.322 7.23a10.757 10.757 0 0 1-1.363 2.824l.024-.038c-.56.934-1.229 2.012-2.006 3.235-.667.966-1.02 1.466-1.059 1.5a1.6 1.6 0 0 0-.334.773v.008c.03.255.15.491.334.67l.5.557c2.675 2.749 4.18 4.644 4.514 5.685a1.114 1.114 0 0 1-.14 1.036l.002-.004a1.207 1.207 0 0 1-.98.361h.005-3.295c-.42 0-.808-.147-1.112-.392l.004.002a8.661 8.661 0 0 1-1.19-1.185l-.01-.015a36.92 36.92 0 0 0-1.533-1.643c-1.485-1.412-2.58-2.118-3.287-2.118a.985.985 0 0 0-.645.169l.003-.003a.958.958 0 0 0-.2.73v-.005a15.645 15.645 0 0 0-.047 1.754v-.021 1.449a.975.975 0 0 1-.333.946v.001a3.974 3.974 0 0 1-2.022.334l.016.001a10.403 10.403 0 0 1-5.344-1.585l.044.025a14.914 14.914 0 0 1-4.646-4.406l-.034-.053a32.951 32.951 0 0 1-3.089-4.99l-.087-.192A30.824 30.824 0 0 1 .47 9.137l-.075-.23a8.308 8.308 0 0 1-.388-1.92l-.002-.03c0-.633.371-.948 1.115-.948h3.287c.332-.026.662.074.924.28l-.003-.002c.25.274.435.61.527.985l.003.015a31.774 31.774 0 0 0 1.984 4.52l-.084-.172a18.2 18.2 0 0 0 2.03 3.22l-.03-.039c.667.818 1.187 1.228 1.56 1.228h.04a.5.5 0 0 0 .434-.25l.001-.002c.12-.313.167-.65.14-.983v.007-4.849a4.014 4.014 0 0 0-.4-1.583l.01.023a3.695 3.695 0 0 0-.563-.868l.003.005c-.21-.21-.346-.481-.388-.774l-.002-.008c0-.212.098-.403.25-.528l.002-.002a.848.848 0 0 1 .575-.222h5.192a.793.793 0 0 1 .699.277l.001.002a1.7 1.7 0 0 1 .199.953v-.006 6.466c-.02.255.04.51.17.73l-.003-.005a.5.5 0 0 0 .417.223c.212-.014.415-.084.59-.203l-.004.003c.34-.234.632-.5.886-.801l.005-.007a19.514 19.514 0 0 0 2.069-2.812l.049-.088c.43-.712.895-1.59 1.316-2.49l.077-.185.558-1.115a1.402 1.402 0 0 1 1.396-.948h-.004 3.29c.887 0 1.22.408 1 1.226h-.002Z" fill="#fff"/></g><defs><clipPath id="ga"><path fill="#fff" transform="translate(.002)" d="M0 0h30v30H0z"/></clipPath></defs></svg><svg fill="none" viewBox="0 0 34 34" id="gym-time" xmlns="http://www.w3.org/2000/svg"><g clip-path="url(#ha)"><path d="M22.844 16.469h-4.348a1.592 1.592 0 0 0-.965-.965V9.031a.531.531 0 0 0-1.062 0v6.473a1.59 1.59 0 1 0 2.027 2.027h4.348a.531.531 0 1 0 0-1.062ZM17 17.53a.53.53 0 1 1 0-1.061.53.53 0 0 1 0 1.061Zm17-.53a17 17 0 1 0-30.796 9.93 1.554 1.554 0 0 0-.017.163v1.062a1.596 1.596 0 0 0 1.594 1.594h.532v1.154a2.036 2.036 0 0 0 2.033 2.034h.183c.382-.001.757-.111 1.079-.317a1.994 1.994 0 0 0 1.89 1.38h.255a2 2 0 0 0 1.997-1.998V29.75h8.5v2.253A2 2 0 0 0 23.247 34h.256a1.994 1.994 0 0 0 1.89-1.379c.322.206.696.316 1.078.317h.183a2.036 2.036 0 0 0 2.034-2.034V29.75h.53a1.596 1.596 0 0 0 1.595-1.594v-1.062a1.536 1.536 0 0 0-.017-.163A16.88 16.88 0 0 0 34 17ZM5.312 28.687h-.53a.532.532 0 0 1-.532-.532v-1.062a.532.532 0 0 1 .531-.531h.532v2.125ZM8.5 30.904a.973.973 0 0 1-.971.971h-.183a.973.973 0 0 1-.971-.971v-5.495a.973.973 0 0 1 .971-.971h.183a.973.973 0 0 1 .971.97v5.496Zm3.188 1.099a.935.935 0 0 1-.935.935h-.256a.936.936 0 0 1-.934-.935v-8.756a.936.936 0 0 1 .934-.934h.256a.936.936 0 0 1 .934.934v8.756Zm9.562-3.315h-8.5v-2.125h8.5v2.125Zm3.188-3.28v6.595a.936.936 0 0 1-.935.935h-.256a.935.935 0 0 1-.934-.935v-8.756a.936.936 0 0 1 .934-.934h.256a.936.936 0 0 1 .934.934v2.162Zm3.187 5.496a.973.973 0 0 1-.971.971h-.183a.973.973 0 0 1-.971-.971v-5.495a.973.973 0 0 1 .971-.971h.183a.973.973 0 0 1 .971.97v5.496Zm.19-7.16a2.019 2.019 0 0 0-1.161-.369h-.183c-.34.002-.674.091-.971.258v-.386a2 2 0 0 0-1.997-1.997h-.256a2 2 0 0 0-1.997 1.997V25.5h-8.5v-2.253a2 2 0 0 0-1.997-1.997h-.256A2 2 0 0 0 8.5 23.247v.386a2.008 2.008 0 0 0-.971-.258h-.183c-.415 0-.821.129-1.16.368a12.694 12.694 0 0 1-1.916-6.212h1.574a.53.53 0 1 0 0-1.062H4.276a12.634 12.634 0 0 1 3.35-8.092l1.11 1.11a.531.531 0 0 0 .75-.751l-1.109-1.11a12.631 12.631 0 0 1 8.092-3.35v1.568a.53.53 0 1 0 1.062 0V4.276c3.01.116 5.88 1.304 8.092 3.35l-1.11 1.11a.533.533 0 0 0 .375.91.531.531 0 0 0 .376-.16l1.11-1.109a12.634 12.634 0 0 1 3.35 8.092h-1.568a.531.531 0 0 0 0 1.062h1.574a12.694 12.694 0 0 1-1.915 6.212Zm1.935 4.412a.532.532 0 0 1-.531.532h-.532v-2.125h.532a.532.532 0 0 1 .531.53v1.063Zm.482-2.282a1.578 1.578 0 0 0-1.013-.374h-.532v-.091a2.02 2.02 0 0 0-.166-.802 13.811 13.811 0 1 0-23.042 0 2.02 2.02 0 0 0-.167.802v.091h-.53c-.372.002-.73.134-1.014.374A15.935 15.935 0 1 1 32.938 17a15.828 15.828 0 0 1-2.706 8.874Z" fill="#F7931E"/></g><defs><clipPath id="ha"><path fill="#fff" d="M0 0h34v34H0z"/></clipPath></defs></svg><svg fill="none" viewBox="0 0 24 24" id="location_(13)_1" xmlns="http://www.w3.org/2000/svg"><path d="M17.843 2.06C16.357.73 14.27 0 12 0S7.644.73 6.157 2.06C4.33 3.679 3.39 6.105 3.39 9.13c0 6.548 7.54 14.244 7.879 14.557.208.209.47.313.73.313s.548-.104.73-.313c.34-.313 7.879-8.009 7.879-14.557 0-3.026-.94-5.452-2.766-7.07ZM12 21.418a39.058 39.058 0 0 1-2.922-3.652c-2.348-3.339-3.6-6.313-3.6-8.635 0-6.521 4.983-7.043 6.522-7.043 6.052 0 6.522 5.4 6.522 7.043 0 4.592-4.67 10.253-6.522 12.287Zm0-16.904c-2.296 0-4.148 1.904-4.148 4.226s1.852 4.2 4.148 4.2c2.296 0 4.148-1.904 4.148-4.226s-1.852-4.2-4.148-4.2Zm0 6.6c-1.278 0-2.322-1.07-2.322-2.4 0-1.33 1.044-2.4 2.322-2.4s2.322 1.07 2.322 2.4c0 1.33-1.044 2.4-2.322 2.4Z" fill="#F7931E"/></svg><svg fill="none" viewBox="0 0 64 64" id="location_(7)" xmlns="http://www.w3.org/2000/svg"><g fill="#F7931E"><path d="M37.333 20.667A5.332 5.332 0 0 0 32 15.333a5.332 5.332 0 0 0-5.333 5.334A5.332 5.332 0 0 0 32 26a5.332 5.332 0 0 0 5.333-5.333Zm-8 0C29.333 19.2 30.533 18 32 18c1.467 0 2.667 1.2 2.667 2.667 0 1.466-1.2 2.666-2.667 2.666a2.675 2.675 0 0 1-2.667-2.666Z"/><path d="M5.333 54h53.334c.466 0 .893-.24 1.133-.64s.267-.88.053-1.293L49.187 30.733A1.317 1.317 0 0 0 48 30h-8.307c1.974-4.36 2.974-7.507 2.974-9.333C42.667 14.787 37.88 10 32 10s-10.667 4.787-10.667 10.667c0 1.826 1 4.973 2.974 9.333H16c-.507 0-.96.28-1.187.733L4.147 52.067c-.214.413-.187.906.053 1.293.24.4.667.64 1.133.64ZM24 20.667c0-4.414 3.587-8 8-8s8 3.586 8 8c0 3.053-4.027 11.413-8 18.613-3.973-7.2-8-15.56-8-18.613Zm-7.173 12h8.733c2.493 5.146 5.173 9.8 5.293 10 .48.826 1.84.826 2.307 0 .12-.2 2.8-4.854 5.293-10h8.734l9.333 18.666H7.493l9.334-18.666Z"/></g></svg><svg fill="none" viewBox="0 0 24 24" id="phone_(1)" xmlns="http://www.w3.org/2000/svg"><g clip-path="url(#ka)"><path clip-rule="evenodd" d="M22.909 17.367v3.273a2.18 2.18 0 0 1-2.378 2.182 21.588 21.588 0 0 1-9.415-3.35 21.273 21.273 0 0 1-6.545-6.545A21.59 21.59 0 0 1 1.22 3.47a2.182 2.182 0 0 1 2.172-2.378h3.272a2.182 2.182 0 0 1 2.182 1.876 14 14 0 0 0 .764 3.066 2.182 2.182 0 0 1-.491 2.302L7.734 9.72a17.455 17.455 0 0 0 6.546 6.545l1.385-1.385a2.182 2.182 0 0 1 2.302-.49c.99.369 2.018.624 3.066.763a2.182 2.182 0 0 1 1.876 2.214Z" stroke="#F7931E" stroke-width="2" stroke-linecap="round" stroke-linejoin="round"/></g><defs><clipPath id="ka"><path fill="#fff" d="M0 0h24v24H0z"/></clipPath></defs></svg><svg fill="none" viewBox="0 0 64 64" id="stationary-bike" xmlns="http://www.w3.org/2000/svg"><path d="M56.64 49.184c2.131-1.574 3.52-4.096 3.52-6.944a8.592 8.592 0 0 0-6.112-8.256l-4.653-1.427 2.106-10.022c4.492-2.08 7.859-6.17 8.934-11.124a3.848 3.848 0 0 0-.768-3.257A3.843 3.843 0 0 0 56.66 6.72h-.166c-1.728 0-3.188 1.216-3.54 2.957a8.304 8.304 0 0 1-6.45 6.47c-1.434.295-2.529 1.434-2.861 2.842a.961.961 0 0 0-.096.269l-2.279 10.816-19.635-6.01-1.824-4.544h1.043a4.113 4.113 0 0 0 4.109-4.109 4.146 4.146 0 0 0-3.251-4.025L10.874 9.069a5.24 5.24 0 0 0-4.43 1.056 5.26 5.26 0 0 0-1.964 4.109 5.288 5.288 0 0 0 5.286 5.286h.89l1.805 4.519a13.88 13.88 0 0 0-3.667 1.952C5.235 28.615 3.2 32.659 3.2 37.08c0 4.743 2.406 8.929 6.054 11.418C5.798 49.242 3.2 52.32 3.2 56c0 .704.576 1.28 1.28 1.28h55.04c.704 0 1.28-.576 1.28-1.28 0-2.963-1.69-5.536-4.16-6.816ZM47.027 18.65a10.87 10.87 0 0 0 8.435-8.461c.11-.531.531-.909 1.03-.909h.167c.55 0 .877.301 1.018.48.25.307.345.71.256 1.107a13.444 13.444 0 0 1-10.266 10.266 1.307 1.307 0 0 1-1.113-.256c-.18-.14-.474-.46-.474-.992 0-.602.397-1.12.947-1.235Zm-1.683 4.486a3.818 3.818 0 0 0 2.867.5c.154-.033.314-.084.467-.122l-1.74 8.294-3.213-.979 1.619-7.693ZM9.766 16.96a2.729 2.729 0 0 1-2.726-2.726c0-.826.371-1.6 1.011-2.119a2.722 2.722 0 0 1 1.709-.608c.192 0 .384.02.576.064l10.835 2.324c.71.147 1.229.787 1.229 1.516 0 .852-.698 1.55-1.549 1.55H9.766Zm8.826 6.413a13.45 13.45 0 0 0-3.622.051l-1.562-3.904h3.648l1.536 3.853ZM5.76 37.082c0-3.603 1.658-6.893 4.557-9.037 1.971-1.46 4.281-2.214 6.65-2.214 1.107 0 2.22.166 3.321.505L53.299 36.43a6.046 6.046 0 0 1 4.3 5.811 6.085 6.085 0 0 1-6.079 6.08H16.998c-6.195 0-11.238-5.043-11.238-11.238Zm.16 17.638a5.13 5.13 0 0 1 4.96-3.84h42.24a5.13 5.13 0 0 1 4.96 3.84H5.92Zm16.352-11.456 1.869 1.562.057.038c.026.02.058.039.09.058.038.025.077.045.115.064.032.019.064.032.09.045.051.019.096.032.147.044l.083.02a.96.96 0 0 0 .237.025h3.2c.704 0 1.28-.576 1.28-1.28 0-.704-.576-1.28-1.28-1.28h-2.74l-1.51-1.26a7.594 7.594 0 0 0 1.05-3.86 7.686 7.686 0 0 0-7.68-7.68 7.686 7.686 0 0 0-7.68 7.68 7.686 7.686 0 0 0 7.68 7.68 7.646 7.646 0 0 0 4.992-1.856ZM12.16 37.44a5.127 5.127 0 0 1 5.12-5.12 5.127 5.127 0 0 1 5.12 5.12c0 .781-.18 1.523-.5 2.189l-3.8-3.174a1.286 1.286 0 0 0-1.806.166 1.286 1.286 0 0 0 .167 1.805l3.801 3.168a5.063 5.063 0 0 1-2.982.966 5.127 5.127 0 0 1-5.12-5.12Zm21.12 6.4c0-.704.576-1.28 1.28-1.28h1.28c.704 0 1.28.576 1.28 1.28 0 .704-.576 1.28-1.28 1.28h-1.28c-.704 0-1.28-.576-1.28-1.28Zm7.68 0c0-.704.576-1.28 1.28-1.28h1.28c.704 0 1.28.576 1.28 1.28 0 .704-.576 1.28-1.28 1.28h-1.28c-.704 0-1.28-.576-1.28-1.28Zm7.68 0c0-.704.576-1.28 1.28-1.28h1.28c.704 0 1.28.576 1.28 1.28 0 .704-.576 1.28-1.28 1.28h-1.28c-.704 0-1.28-.576-1.28-1.28Z" fill="#F7931E"/></svg><svg fill="none" viewBox="0 0 64 64" id="wallet" xmlns="http://www.w3.org/2000/svg"><path fill-rule="evenodd" clip-rule="evenodd" d="M62.667 53.333A6.666 6.666 0 0 1 56 60H8a6.666 6.666 0 0 1-6.667-6.667V14.667a5.334 5.334 0 0 1 5.334-5.334H33.56L44.36 5.421a1.32 1.32 0 0 1 1.69.786l1.138 3.126H52a5.334 5.334 0 0 1 5.333 5.334v2.666a5.334 5.334 0 0 1 5.334 5.334v30.666ZM6.667 12a2.668 2.668 0 0 0 0 5.333h4.845c.017-.006.028-.021.045-.028L26.2 12H6.667Zm38.77.241-1.416-3.898h-.001l-2.735.99h.004L33.937 12h-.013l-14.719 5.333h28.083l-1.85-5.092Zm9.23 2.426A2.668 2.668 0 0 0 52 12h-3.844l1.939 5.333h4.572v-2.666ZM57.333 20H6.667c-.976 0-1.88-.281-2.667-.74v34.073a4 4 0 0 0 4 4h48a4 4 0 0 0 4-4V44h-5.333a5.334 5.334 0 0 1 0-10.667H60V22.667A2.668 2.668 0 0 0 57.333 20ZM60 41.333V36h-5.333a2.668 2.668 0 0 0 0 5.333H60Zm-5.333-4h2.666V40h-2.666v-2.667Z" fill="#F7931E"/></svg></svg>