<svg width="64" height="64" fill="none" xmlns="http://www.w3.org/2000/svg"><path d="M56.64 49.184c2.131-1.574 3.52-4.096 3.52-6.944a8.592 8.592 0 00-6.112-8.256l-4.653-1.427 2.106-10.022c4.492-2.08 7.859-6.17 8.934-11.124a3.848 3.848 0 00-.768-3.257A3.843 3.843 0 0056.66 6.72h-.166c-1.728 0-3.188 1.216-3.54 2.957a8.304 8.304 0 01-6.45 6.47c-1.434.295-2.529 1.434-2.861 2.842a.961.961 0 00-.096.269l-2.279 10.816-19.635-6.01-1.824-4.544h1.043a4.113 4.113 0 004.109-4.109 4.146 4.146 0 00-3.251-4.025L10.874 9.069a5.24 5.24 0 00-4.43 1.056 5.26 5.26 0 00-1.964 4.109 5.288 5.288 0 005.286 5.286h.89l1.805 4.519a13.88 13.88 0 00-3.667 1.952C5.235 28.615 3.2 32.659 3.2 37.08c0 4.743 2.406 8.929 6.054 11.418C5.798 49.242 3.2 52.32 3.2 56c0 .704.576 1.28 1.28 1.28h55.04c.704 0 1.28-.576 1.28-1.28 0-2.963-1.69-5.536-4.16-6.816zM47.027 18.65a10.87 10.87 0 008.435-8.461c.11-.531.531-.909 1.03-.909h.167c.55 0 .877.301 1.018.48.25.307.345.71.256 1.107a13.444 13.444 0 01-10.266 10.266 1.307 1.307 0 01-1.113-.256 1.24 1.24 0 01-.474-.992c0-.602.397-1.12.947-1.235zm-1.683 4.486a3.818 3.818 0 002.867.5c.154-.033.314-.084.467-.122l-1.74 8.294-3.213-.979 1.619-7.693zM9.766 16.96a2.729 2.729 0 01-2.726-2.726c0-.826.371-1.6 1.011-2.119a2.722 2.722 0 011.709-.608c.192 0 .384.02.576.064l10.835 2.324c.71.147 1.229.787 1.229 1.516 0 .852-.698 1.55-1.549 1.55H9.766zm8.826 6.413a13.45 13.45 0 00-3.622.051l-1.562-3.904h3.648l1.536 3.853zM5.76 37.082c0-3.603 1.658-6.893 4.557-9.037a11.12 11.12 0 019.971-1.709L53.299 36.43a6.046 6.046 0 014.3 5.811 6.085 6.085 0 01-6.079 6.08H16.998c-6.195 0-11.238-5.043-11.238-11.238zm.16 17.638a5.13 5.13 0 014.96-3.84h42.24a5.13 5.13 0 014.96 3.84H5.92zm16.352-11.456l1.869 1.562.057.038c.026.02.058.039.09.058.038.025.077.045.115.064.032.019.064.032.09.045.051.019.096.032.147.044l.083.02a.96.96 0 00.237.025h3.2c.704 0 1.28-.576 1.28-1.28 0-.704-.576-1.28-1.28-1.28h-2.74l-1.51-1.26a7.594 7.594 0 001.05-3.86 7.686 7.686 0 00-7.68-7.68 7.686 7.686 0 00-7.68 7.68 7.686 7.686 0 007.68 7.68 7.646 7.646 0 004.992-1.856zM12.16 37.44a5.127 5.127 0 015.12-5.12 5.127 5.127 0 015.12 5.12 5.04 5.04 0 01-.5 2.189l-3.8-3.174a1.286 1.286 0 00-1.806.166 1.286 1.286 0 00.167 1.805l3.801 3.168a5.063 5.063 0 01-2.982.966 5.127 5.127 0 01-5.12-5.12zm21.12 6.4c0-.704.576-1.28 1.28-1.28h1.28c.704 0 1.28.576 1.28 1.28 0 .704-.576 1.28-1.28 1.28h-1.28c-.704 0-1.28-.576-1.28-1.28zm7.68 0c0-.704.576-1.28 1.28-1.28h1.28c.704 0 1.28.576 1.28 1.28 0 .704-.576 1.28-1.28 1.28h-1.28c-.704 0-1.28-.576-1.28-1.28zm7.68 0c0-.704.576-1.28 1.28-1.28h1.28c.704 0 1.28.576 1.28 1.28 0 .704-.576 1.28-1.28 1.28h-1.28c-.704 0-1.28-.576-1.28-1.28z" fill="#F7931E"/></svg>