<svg width="26" height="26" viewBox="0 0 26 26" fill="none" xmlns="http://www.w3.org/2000/svg">
<g id="bi:arrow-left">
<g id="Group">
<path id="Vector" fill-rule="evenodd" clip-rule="evenodd" d="M24.375 14.0001C24.375 13.7846 24.2894 13.5779 24.137 13.4255C23.9846 13.2732 23.778 13.1876 23.5625 13.1876H4.39886L9.51274 8.0753C9.58828 7.99976 9.6482 7.91007 9.68909 7.81137C9.72997 7.71267 9.75101 7.60688 9.75101 7.50005C9.75101 7.39322 9.72997 7.28743 9.68909 7.18873C9.6482 7.09003 9.58828 7.00034 9.51274 6.9248C9.43719 6.84926 9.34751 6.78933 9.24881 6.74845C9.15011 6.70757 9.04432 6.68652 8.93749 6.68652C8.83065 6.68652 8.72487 6.70757 8.62616 6.74845C8.52746 6.78933 8.43778 6.84926 8.36224 6.9248L1.86224 13.4248C1.78657 13.5003 1.72654 13.5899 1.68558 13.6886C1.64462 13.7874 1.62354 13.8932 1.62354 14.0001C1.62354 14.1069 1.64462 14.2127 1.68558 14.3115C1.72654 14.4102 1.78657 14.4998 1.86224 14.5753L8.36224 21.0753C8.43778 21.1508 8.52746 21.2108 8.62616 21.2517C8.72487 21.2925 8.83065 21.3136 8.93749 21.3136C9.04432 21.3136 9.15011 21.2925 9.24881 21.2517C9.34751 21.2108 9.43719 21.1508 9.51274 21.0753C9.58828 20.9998 9.6482 20.9101 9.68909 20.8114C9.72997 20.7127 9.75101 20.6069 9.75101 20.5001C9.75101 20.3932 9.72997 20.2874 9.68909 20.1887C9.6482 20.09 9.58828 20.0003 9.51274 19.9248L4.39886 14.8126H23.5625C23.778 14.8126 23.9846 14.7269 24.137 14.5746C24.2894 14.4222 24.375 14.2155 24.375 14.0001Z" fill="white"/>
</g>
</g>
</svg>
