<svg width="26" height="26" viewBox="0 0 26 26" fill="none" xmlns="http://www.w3.org/2000/svg">
<g id="bi:arrow-left">
<g id="Group">
<path id="Vector" fill-rule="evenodd" clip-rule="evenodd" d="M1.62501 12.9999C1.62501 13.2154 1.71062 13.4221 1.86299 13.5745C2.01536 13.7268 2.22202 13.8124 2.43751 13.8124L21.6011 13.8124L16.4873 18.9247C16.4117 19.0002 16.3518 19.0899 16.3109 19.1886C16.27 19.2873 16.249 19.3931 16.249 19.5C16.249 19.6068 16.27 19.7126 16.3109 19.8113C16.3518 19.91 16.4117 19.9997 16.4873 20.0752C16.5628 20.1507 16.6525 20.2107 16.7512 20.2516C16.8499 20.2924 16.9557 20.3135 17.0625 20.3135C17.1693 20.3135 17.2751 20.2924 17.3738 20.2516C17.4725 20.2107 17.5622 20.1507 17.6378 20.0752L24.1378 13.5752C24.2134 13.4997 24.2735 13.4101 24.3144 13.3114C24.3554 13.2126 24.3765 13.1068 24.3765 12.9999C24.3765 12.8931 24.3554 12.7873 24.3144 12.6885C24.2735 12.5898 24.2134 12.5002 24.1378 12.4247L17.6378 5.9247C17.5622 5.84916 17.4725 5.78923 17.3738 5.74835C17.2751 5.70746 17.1693 5.68642 17.0625 5.68642C16.9557 5.68642 16.8499 5.70746 16.7512 5.74835C16.6525 5.78923 16.5628 5.84916 16.4873 5.9247C16.4117 6.00024 16.3518 6.08992 16.3109 6.18863C16.27 6.28733 16.249 6.39312 16.249 6.49995C16.249 6.60678 16.27 6.71257 16.3109 6.81127C16.3518 6.90997 16.4117 6.99966 16.4873 7.0752L21.6011 12.1874L2.43751 12.1874C2.22202 12.1874 2.01536 12.2731 1.86299 12.4254C1.71062 12.5778 1.62501 12.7845 1.62501 12.9999Z" fill="white"/>
</g>
</g>
</svg>
