<svg width="64" height="64" viewBox="0 0 64 64" fill="none" xmlns="http://www.w3.org/2000/svg">
<g id="wallet">
<path id="Vector" fill-rule="evenodd" clip-rule="evenodd" d="M62.6666 53.3333C62.6666 57.016 59.6826 60 55.9999 60H7.99992C4.31725 60 1.33325 57.016 1.33325 53.3333V14.6666C1.33325 11.7213 3.72125 9.33329 6.66658 9.33329H33.5612L44.3599 5.42129C45.0439 5.17196 45.8012 5.5253 46.0506 6.20663L47.1879 9.33329H51.9999C54.9452 9.33329 57.3332 11.7213 57.3332 14.6666V17.3333C60.2786 17.3333 62.6666 19.7213 62.6666 22.6666V53.3333ZM6.66658 12C5.19459 12 3.99992 13.1946 3.99992 14.6666C3.99992 16.1386 5.19459 17.3333 6.66658 17.3333H11.2599H11.5119C11.5293 17.3266 11.5399 17.312 11.5573 17.3053L26.1999 12H6.66658ZM45.4372 12.2413L44.0212 8.34263H44.0199L41.2853 9.33329H41.2892L33.9372 12H33.9239L19.2053 17.3333H47.2879L45.4372 12.2413ZM54.6666 14.6666C54.6666 13.1946 53.4719 12 51.9999 12H48.1559L50.0946 17.3333H54.6666V14.6666ZM57.3332 20H6.66658C5.69059 20 4.78659 19.7186 3.99992 19.26V53.3333C3.99992 55.5426 5.79192 57.3333 7.99992 57.3333H55.9999C58.2092 57.3333 59.9999 55.5426 59.9999 53.3333V44H54.6666C51.7212 44 49.3332 41.612 49.3332 38.6666C49.3332 35.7213 51.7212 33.3333 54.6666 33.3333H59.9999V22.6666C59.9999 21.1946 58.8052 20 57.3332 20ZM59.9999 41.3333V36H54.6666C53.1946 36 51.9999 37.1946 51.9999 38.6666C51.9999 40.1386 53.1946 41.3333 54.6666 41.3333H59.9999ZM54.6666 37.3333H57.3332V40H54.6666V37.3333Z" fill="#F7931E"/>
</g>
</svg>
